<svg data-v-423bf9ae="" xmlns="http://www.w3.org/2000/svg" viewBox="0 0 607 90" class="iconLeft"><!----><!----><!----><g data-v-423bf9ae="" id="af5f79ff-1105-43be-9a47-8e32e88400c2" fill="#022239" transform="matrix(4.158004070067766,0,0,4.158004070067766,213.2234830310475,9.760916580298485)"><path d="M6.30 1.26L6.30 1.26Q7.36 1.26 8.14 1.54L8.14 1.54L8.14 1.54Q8.92 1.82 9.72 2.46L9.72 2.46L9.72 2.46Q9.88 2.59 9.94 2.72L9.94 2.72L9.94 2.72Q10.00 2.86 10.00 3.04L10.00 3.04L10.00 3.04Q10.00 3.32 9.79 3.50L9.79 3.50L9.79 3.50Q9.59 3.68 9.32 3.68L9.32 3.68L9.32 3.68Q9.06 3.68 8.83 3.50L8.83 3.50L8.83 3.50Q8.26 3.01 7.71 2.79L7.71 2.79L7.71 2.79Q7.17 2.58 6.30 2.58L6.30 2.58L6.30 2.58Q5.21 2.58 4.29 3.15L4.29 3.15L4.29 3.15Q3.37 3.72 2.83 4.71L2.83 4.71L2.83 4.71Q2.30 5.70 2.30 6.86L2.30 6.86L2.30 6.86Q2.30 8.04 2.83 9.02L2.83 9.02L2.83 9.02Q3.37 10.00 4.29 10.57L4.29 10.57L4.29 10.57Q5.21 11.14 6.30 11.14L6.30 11.14L6.30 11.14Q7.64 11.14 8.88 10.22L8.88 10.22L8.88 10.22Q9.11 10.05 9.34 10.05L9.34 10.05L9.34 10.05Q9.60 10.05 9.78 10.24L9.78 10.24L9.78 10.24Q9.95 10.43 9.95 10.74L9.95 10.74L9.95 10.74Q9.95 11.03 9.73 11.26L9.73 11.26L9.73 11.26Q8.22 12.47 6.30 12.47L6.30 12.47L6.30 12.47Q4.80 12.47 3.56 11.73L3.56 11.73L3.56 11.73Q2.32 10.99 1.61 9.70L1.61 9.70L1.61 9.70Q0.90 8.41 0.90 6.86L0.90 6.86L0.90 6.86Q0.90 5.32 1.61 4.04L1.61 4.04L1.61 4.04Q2.32 2.76 3.56 2.01L3.56 2.01L3.56 2.01Q4.80 1.26 6.30 1.26L6.30 1.26ZM15.89 4.59L15.89 4.59Q16.63 4.59 17.05 4.82L17.05 4.82L17.05 4.82Q17.47 5.04 17.47 5.38L17.47 5.38L17.47 5.38Q17.47 5.47 17.46 5.52L17.46 5.52L17.46 5.52Q17.33 5.96 16.90 5.96L16.90 5.96L16.90 5.96Q16.83 5.96 16.69 5.94L16.69 5.94L16.69 5.94Q16.13 5.84 15.78 5.84L15.78 5.84L15.78 5.84Q14.77 5.84 14.15 6.30L14.15 6.30L14.15 6.30Q13.54 6.76 13.54 7.55L13.54 7.55L13.54 11.63L13.54 11.63Q13.54 11.97 13.36 12.15L13.36 12.15L13.36 12.15Q13.19 12.33 12.84 12.33L12.84 12.33L12.84 12.33Q12.50 12.33 12.32 12.16L12.32 12.16L12.32 12.16Q12.14 11.98 12.14 11.63L12.14 11.63L12.14 5.38L12.14 5.38Q12.14 5.04 12.32 4.86L12.32 4.86L12.32 4.86Q12.50 4.68 12.84 4.68L12.84 4.68L12.84 4.68Q13.54 4.68 13.54 5.38L13.54 5.38L13.54 5.64L13.54 5.64Q13.96 5.15 14.57 4.87L14.57 4.87L14.57 4.87Q15.19 4.59 15.89 4.59L15.89 4.59ZM24.79 4.75L24.79 4.75Q25.23 4.91 25.23 5.29L25.23 5.29L25.23 5.29Q25.23 5.43 25.14 5.63L25.14 5.63L20.86 15.26L20.86 15.26Q20.69 15.69 20.31 15.69L20.31 15.69L20.31 15.69Q20.17 15.69 19.98 15.61L19.98 15.61L19.98 15.61Q19.56 15.43 19.56 15.06L19.56 15.06L19.56 15.06Q19.56 14.90 19.64 14.73L19.64 14.73L21.04 11.58L17.89 5.60L17.89 5.60Q17.82 5.47 17.82 5.31L17.82 5.31L17.82 5.31Q17.82 5.12 17.93 4.97L17.93 4.97L17.93 4.97Q18.05 4.82 18.23 4.73L18.23 4.73L18.23 4.73Q18.35 4.68 18.51 4.68L18.51 4.68L18.51 4.68Q18.90 4.68 19.10 5.07L19.10 5.07L21.66 10.16L23.91 5.08L23.91 5.08Q24.09 4.68 24.46 4.68L24.46 4.68L24.46 4.68Q24.64 4.68 24.79 4.75L24.79 4.75ZM30.34 4.62L30.34 4.62Q31.42 4.62 32.30 5.13L32.30 5.13L32.30 5.13Q33.19 5.64 33.70 6.53L33.70 6.53L33.70 6.53Q34.20 7.42 34.20 8.51L34.20 8.51L34.20 8.51Q34.20 9.60 33.73 10.49L33.73 10.49L33.73 10.49Q33.26 11.38 32.45 11.89L32.45 11.89L32.45 11.89Q31.63 12.39 30.62 12.39L30.62 12.39L30.62 12.39Q29.81 12.39 29.11 12.05L29.11 12.05L29.11 12.05Q28.41 11.72 27.92 11.12L27.92 11.12L27.92 14.90L27.92 14.90Q27.92 15.22 27.72 15.41L27.72 15.41L27.72 15.41Q27.52 15.61 27.20 15.61L27.20 15.61L27.20 15.61Q26.89 15.61 26.69 15.41L26.69 15.41L26.69 15.41Q26.49 15.22 26.49 14.90L26.49 14.90L26.49 8.51L26.49 8.51Q26.49 7.42 27.00 6.53L27.00 6.53L27.00 6.53Q27.51 5.64 28.39 5.13L28.39 5.13L28.39 5.13Q29.26 4.62 30.34 4.62L30.34 4.62ZM30.34 11.13L30.34 11.13Q31.04 11.13 31.61 10.79L31.61 10.79L31.61 10.79Q32.17 10.44 32.50 9.85L32.50 9.85L32.50 9.85Q32.83 9.25 32.83 8.51L32.83 8.51L32.83 8.51Q32.83 7.77 32.50 7.17L32.50 7.17L32.50 7.17Q32.17 6.57 31.61 6.22L31.61 6.22L31.61 6.22Q31.04 5.88 30.34 5.88L30.34 5.88L30.34 5.88Q29.64 5.88 29.07 6.22L29.07 6.22L29.07 6.22Q28.50 6.57 28.18 7.17L28.18 7.17L28.18 7.17Q27.86 7.77 27.86 8.51L27.86 8.51L27.86 8.51Q27.86 9.25 28.18 9.85L28.18 9.85L28.18 9.85Q28.50 10.44 29.07 10.79L29.07 10.79L29.07 10.79Q29.64 11.13 30.34 11.13L30.34 11.13ZM39.59 10.93L39.59 10.93Q39.84 10.93 40.02 11.13L40.02 11.13L40.02 11.13Q40.19 11.33 40.19 11.63L40.19 11.63L40.19 11.63Q40.19 11.94 39.96 12.14L39.96 12.14L39.96 12.14Q39.73 12.33 39.37 12.33L39.37 12.33L39.12 12.33L39.12 12.33Q38.43 12.33 37.86 11.98L37.86 11.98L37.86 11.98Q37.30 11.62 36.97 11.00L36.97 11.00L36.97 11.00Q36.65 10.39 36.65 9.62L36.65 9.62L36.65 6.16L36.01 6.16L36.01 6.16Q35.71 6.16 35.53 5.99L35.53 5.99L35.53 5.99Q35.35 5.82 35.35 5.57L35.35 5.57L35.35 5.57Q35.35 5.29 35.53 5.12L35.53 5.12L35.53 5.12Q35.71 4.96 36.01 4.96L36.01 4.96L36.65 4.96L36.65 2.94L36.65 2.94Q36.65 2.63 36.85 2.44L36.85 2.44L36.85 2.44Q37.04 2.24 37.35 2.24L37.35 2.24L37.35 2.24Q37.66 2.24 37.86 2.44L37.86 2.44L37.86 2.44Q38.05 2.63 38.05 2.94L38.05 2.94L38.05 4.96L39.24 4.96L39.24 4.96Q39.54 4.96 39.72 5.12L39.72 5.12L39.72 5.12Q39.90 5.29 39.90 5.57L39.90 5.57L39.90 5.57Q39.90 5.82 39.72 5.99L39.72 5.99L39.72 5.99Q39.54 6.16 39.24 6.16L39.24 6.16L38.05 6.16L38.05 9.62L38.05 9.62Q38.05 10.18 38.36 10.56L38.36 10.56L38.36 10.56Q38.67 10.93 39.12 10.93L39.12 10.93L39.59 10.93ZM45.42 4.62L45.42 4.62Q46.52 4.62 47.40 5.12L47.40 5.12L47.40 5.12Q48.27 5.61 48.77 6.50L48.77 6.50L48.77 6.50Q49.27 7.38 49.27 8.51L49.27 8.51L49.27 8.51Q49.27 9.63 48.78 10.51L48.78 10.51L48.78 10.51Q48.29 11.40 47.41 11.89L47.41 11.89L47.41 11.89Q46.54 12.39 45.42 12.39L45.42 12.39L45.42 12.39Q44.30 12.39 43.41 11.89L43.41 11.89L43.41 11.89Q42.53 11.40 42.04 10.51L42.04 10.51L42.04 10.51Q41.55 9.63 41.55 8.51L41.55 8.51L41.55 8.51Q41.55 7.38 42.04 6.50L42.04 6.50L42.04 6.50Q42.53 5.61 43.41 5.12L43.41 5.12L43.41 5.12Q44.30 4.62 45.42 4.62L45.42 4.62ZM45.42 5.88L45.42 5.88Q44.70 5.88 44.13 6.22L44.13 6.22L44.13 6.22Q43.57 6.55 43.25 7.15L43.25 7.15L43.25 7.15Q42.92 7.76 42.92 8.51L42.92 8.51L42.92 8.51Q42.92 9.27 43.25 9.86L43.25 9.86L43.25 9.86Q43.57 10.46 44.13 10.79L44.13 10.79L44.13 10.79Q44.70 11.13 45.42 11.13L45.42 11.13L45.42 11.13Q46.13 11.13 46.70 10.79L46.70 10.79L46.70 10.79Q47.26 10.46 47.58 9.86L47.58 9.86L47.58 9.86Q47.89 9.27 47.89 8.51L47.89 8.51L47.89 8.51Q47.89 7.76 47.58 7.15L47.58 7.15L47.58 7.15Q47.26 6.55 46.70 6.22L46.70 6.22L46.70 6.22Q46.13 5.88 45.42 5.88L45.42 5.88ZM59.44 4.61L59.44 4.61Q60.66 4.61 61.41 5.40L61.41 5.40L61.41 5.40Q62.16 6.20 62.16 7.63L62.16 7.63L62.16 11.63L62.16 11.63Q62.16 11.94 61.96 12.14L61.96 12.14L61.96 12.14Q61.77 12.35 61.45 12.35L61.45 12.35L61.45 12.35Q61.14 12.35 60.94 12.14L60.94 12.14L60.94 12.14Q60.73 11.94 60.73 11.63L60.73 11.63L60.73 7.63L60.73 7.63Q60.73 6.78 60.30 6.33L60.30 6.33L60.30 6.33Q59.88 5.89 59.16 5.89L59.16 5.89L59.16 5.89Q58.44 5.89 57.97 6.40L57.97 6.40L57.97 6.40Q57.50 6.90 57.50 7.69L57.50 7.69L57.50 11.63L57.50 11.63Q57.50 11.94 57.30 12.14L57.30 12.14L57.30 12.14Q57.11 12.35 56.78 12.35L56.78 12.35L56.78 12.35Q56.48 12.35 56.27 12.14L56.27 12.14L56.27 12.14Q56.07 11.94 56.07 11.63L56.07 11.63L56.07 7.63L56.07 7.63Q56.07 6.78 55.64 6.33L55.64 6.33L55.64 6.33Q55.22 5.89 54.50 5.89L54.50 5.89L54.50 5.89Q53.76 5.89 53.29 6.40L53.29 6.40L53.29 6.40Q52.82 6.90 52.82 7.69L52.82 7.69L52.82 11.63L52.82 11.63Q52.82 11.94 52.63 12.14L52.63 12.14L52.63 12.14Q52.43 12.35 52.11 12.35L52.11 12.35L52.11 12.35Q51.80 12.35 51.60 12.14L51.60 12.14L51.60 12.14Q51.39 11.94 51.39 11.63L51.39 11.63L51.39 5.40L51.39 5.40Q51.39 5.08 51.60 4.89L51.60 4.89L51.60 4.89Q51.80 4.69 52.11 4.69L52.11 4.69L52.11 4.69Q52.42 4.69 52.61 4.88L52.61 4.88L52.61 4.88Q52.81 5.07 52.82 5.38L52.82 5.38L52.82 5.38Q53.19 5.01 53.69 4.81L53.69 4.81L53.69 4.81Q54.19 4.61 54.78 4.61L54.78 4.61L54.78 4.61Q55.50 4.61 56.06 4.89L56.06 4.89L56.06 4.89Q56.63 5.18 56.99 5.71L56.99 5.71L56.99 5.71Q57.41 5.19 58.04 4.90L58.04 4.90L58.04 4.90Q58.67 4.61 59.44 4.61L59.44 4.61ZM71.40 8.39L71.40 8.39Q71.40 8.65 71.22 8.83L71.22 8.83L71.22 8.83Q71.04 9.00 70.76 9.00L70.76 9.00L65.44 9.00L65.44 9.00Q65.59 9.98 66.33 10.58L66.33 10.58L66.33 10.58Q67.06 11.19 68.12 11.19L68.12 11.19L68.12 11.19Q68.54 11.19 69.00 11.03L69.00 11.03L69.00 11.03Q69.45 10.88 69.75 10.65L69.75 10.65L69.75 10.65Q69.94 10.50 70.21 10.50L70.21 10.50L70.21 10.50Q70.48 10.50 70.63 10.64L70.63 10.64L70.63 10.64Q70.88 10.85 70.88 11.12L70.88 11.12L70.88 11.12Q70.88 11.37 70.66 11.54L70.66 11.54L70.66 11.54Q70.18 11.91 69.47 12.15L69.47 12.15L69.47 12.15Q68.77 12.39 68.12 12.39L68.12 12.39L68.12 12.39Q66.98 12.39 66.07 11.89L66.07 11.89L66.07 11.89Q65.16 11.40 64.64 10.51L64.64 10.51L64.64 10.51Q64.13 9.63 64.13 8.51L64.13 8.51L64.13 8.51Q64.13 7.39 64.62 6.50L64.62 6.50L64.62 6.50Q65.10 5.61 65.96 5.12L65.96 5.12L65.96 5.12Q66.82 4.62 67.91 4.62L67.91 4.62L67.91 4.62Q68.99 4.62 69.78 5.10L69.78 5.10L69.78 5.10Q70.56 5.57 70.98 6.43L70.98 6.43L70.98 6.43Q71.40 7.28 71.40 8.39L71.40 8.39ZM67.91 5.82L67.91 5.82Q66.89 5.82 66.25 6.38L66.25 6.38L66.25 6.38Q65.62 6.94 65.45 7.88L65.45 7.88L70.11 7.88L70.11 7.88Q69.99 6.94 69.41 6.38L69.41 6.38L69.41 6.38Q68.84 5.82 67.91 5.82L67.91 5.82ZM79.83 1.40L79.83 1.40Q80.15 1.40 80.35 1.60L80.35 1.60L80.35 1.60Q80.54 1.79 80.54 2.11L80.54 2.11L80.54 8.50L80.54 8.50Q80.54 9.59 80.03 10.48L80.03 10.48L80.03 10.48Q79.52 11.37 78.64 11.88L78.64 11.88L78.64 11.88Q77.77 12.39 76.69 12.39L76.69 12.39L76.69 12.39Q75.61 12.39 74.72 11.88L74.72 11.88L74.72 11.88Q73.84 11.37 73.33 10.48L73.33 10.48L73.33 10.48Q72.83 9.59 72.83 8.50L72.83 8.50L72.83 8.50Q72.83 7.41 73.30 6.52L73.30 6.52L73.30 6.52Q73.77 5.63 74.58 5.12L74.58 5.12L74.58 5.12Q75.40 4.62 76.41 4.62L76.41 4.62L76.41 4.62Q77.22 4.62 77.92 4.96L77.92 4.96L77.92 4.96Q78.62 5.29 79.11 5.89L79.11 5.89L79.11 2.11L79.11 2.11Q79.11 1.79 79.32 1.60L79.32 1.60L79.32 1.60Q79.52 1.40 79.83 1.40L79.83 1.40ZM76.69 11.13L76.69 11.13Q77.39 11.13 77.96 10.79L77.96 10.79L77.96 10.79Q78.53 10.44 78.85 9.84L78.85 9.84L78.85 9.84Q79.17 9.24 79.17 8.50L79.17 8.50L79.17 8.50Q79.17 7.76 78.85 7.16L78.85 7.16L78.85 7.16Q78.53 6.57 77.96 6.22L77.96 6.22L77.96 6.22Q77.39 5.88 76.69 5.88L76.69 5.88L76.69 5.88Q75.99 5.88 75.42 6.22L75.42 6.22L75.42 6.22Q74.86 6.57 74.53 7.16L74.53 7.16L74.53 7.16Q74.20 7.76 74.20 8.50L74.20 8.50L74.20 8.50Q74.20 9.24 74.53 9.84L74.53 9.84L74.53 9.84Q74.86 10.44 75.42 10.79L75.42 10.79L75.42 10.79Q75.99 11.13 76.69 11.13L76.69 11.13ZM83.20 5.39L83.20 5.39Q83.20 5.07 83.40 4.87L83.40 4.87L83.40 4.87Q83.61 4.68 83.92 4.68L83.92 4.68L83.92 4.68Q84.24 4.68 84.43 4.87L84.43 4.87L84.43 4.87Q84.63 5.07 84.63 5.39L84.63 5.39L84.63 11.62L84.63 11.62Q84.63 11.93 84.43 12.13L84.43 12.13L84.43 12.13Q84.24 12.33 83.92 12.33L83.92 12.33L83.92 12.33Q83.61 12.33 83.40 12.13L83.40 12.13L83.40 12.13Q83.20 11.93 83.20 11.62L83.20 11.62L83.20 5.39ZM83.92 1.58L83.92 1.58Q84.29 1.58 84.57 1.85L84.57 1.85L84.57 1.85Q84.84 2.13 84.84 2.51L84.84 2.51L84.84 2.51Q84.84 2.88 84.57 3.16L84.57 3.16L84.57 3.16Q84.29 3.43 83.92 3.43L83.92 3.43L83.92 3.43Q83.54 3.43 83.26 3.16L83.26 3.16L83.26 3.16Q82.99 2.88 82.99 2.51L82.99 2.51L82.99 2.51Q82.99 2.13 83.26 1.85L83.26 1.85L83.26 1.85Q83.54 1.58 83.92 1.58L83.92 1.58ZM90.76 4.62L90.76 4.62Q91.84 4.62 92.71 5.13L92.71 5.13L92.71 5.13Q93.59 5.64 94.10 6.53L94.10 6.53L94.10 6.53Q94.61 7.42 94.61 8.51L94.61 8.51L94.61 11.63L94.61 11.63Q94.61 11.94 94.41 12.14L94.41 12.14L94.41 12.14Q94.21 12.35 93.90 12.35L93.90 12.35L93.90 12.35Q93.59 12.35 93.39 12.14L93.39 12.14L93.39 12.14Q93.18 11.94 93.18 11.63L93.18 11.63L93.18 11.12L93.18 11.12Q92.69 11.72 91.99 12.05L91.99 12.05L91.99 12.05Q91.29 12.39 90.48 12.39L90.48 12.39L90.48 12.39Q89.47 12.39 88.65 11.89L88.65 11.89L88.65 11.89Q87.84 11.38 87.37 10.49L87.37 10.49L87.37 10.49Q86.90 9.60 86.90 8.51L86.90 8.51L86.90 8.51Q86.90 7.42 87.40 6.53L87.40 6.53L87.40 6.53Q87.91 5.64 88.79 5.13L88.79 5.13L88.79 5.13Q89.68 4.62 90.76 4.62L90.76 4.62ZM90.76 11.13L90.76 11.13Q91.46 11.13 92.03 10.79L92.03 10.79L92.03 10.79Q92.60 10.44 92.92 9.85L92.92 9.85L92.92 9.85Q93.24 9.25 93.24 8.51L93.24 8.51L93.24 8.51Q93.24 7.77 92.92 7.17L92.92 7.17L92.92 7.17Q92.60 6.57 92.03 6.22L92.03 6.22L92.03 6.22Q91.46 5.88 90.76 5.88L90.76 5.88L90.76 5.88Q90.06 5.88 89.49 6.22L89.49 6.22L89.49 6.22Q88.93 6.57 88.60 7.17L88.60 7.17L88.60 7.17Q88.27 7.77 88.27 8.51L88.27 8.51L88.27 8.51Q88.27 9.25 88.60 9.85L88.60 9.85L88.60 9.85Q88.93 10.44 89.49 10.79L89.49 10.79L89.49 10.79Q90.06 11.13 90.76 11.13L90.76 11.13Z"></path></g><defs data-v-423bf9ae=""><linearGradient data-v-423bf9ae="" gradientTransform="rotate(25)" id="1fec2a88-f022-4820-89fe-4aac0fce6c83" x1="0%" y1="0%" x2="100%" y2="0%"><stop data-v-423bf9ae="" offset="0%" style="stop-color: rgb(0, 10, 104); stop-opacity: 1;"></stop><stop data-v-423bf9ae="" offset="100%" style="stop-color: rgb(0, 196, 238); stop-opacity: 1;"></stop></linearGradient></defs><g data-v-423bf9ae="" id="536b0e52-a796-4de9-acbe-d278dfe6f3fc" transform="matrix(2.3400938915540745,0,0,2.3400938915540745,-17.761369534094086,-71.23468965656517)" stroke="none" fill="url(#1fec2a88-f022-4820-89fe-4aac0fce6c83)"><path d="M67.49 30.77H32a1.5 1.5 0 0 0-1.5 1.5v35.46a1.5 1.5 0 0 0 1.5 1.5h35.49a1.5 1.5 0 0 0 1.5-1.5V32.27a1.5 1.5 0 0 0-1.5-1.5zM66 66.23H33.53V33.77H66zM90.34 42.3H77.93a1.5 1.5 0 0 0-1.5 1.5v12.4a1.5 1.5 0 0 0 1.5 1.5h12.41a1.5 1.5 0 0 0 1.5-1.5V43.8a1.5 1.5 0 0 0-1.5-1.5zm-1.5 12.4h-9.41v-9.4h9.41zM21.58 42.3H9.17a1.5 1.5 0 0 0-1.5 1.5v12.4a1.5 1.5 0 0 0 1.5 1.5h12.41a1.5 1.5 0 0 0 1.5-1.5V43.8a1.5 1.5 0 0 0-1.5-1.5zm-1.5 12.4h-9.41v-9.4h9.41zm23.43 1.92a9.77 9.77 0 0 1 0-13.85 9.93 9.93 0 0 1 3.31-2.16v-2.45a1.5 1.5 0 0 1 3 0v1.78h.84v-1.78a1.5 1.5 0 0 1 3 0v2.32a9.65 9.65 0 0 1 3.69 2.3 1.49 1.49 0 0 1 0 2.12 1.51 1.51 0 0 1-2.12 0 6.72 6.72 0 0 0-3.37-1.82 6.53 6.53 0 0 0-3.14.05 6.82 6.82 0 0 0-3.08 1.77 6.79 6.79 0 0 0 3.06 11.36 6.34 6.34 0 0 0 3.12.06 6.68 6.68 0 0 0 3.41-1.82 1.5 1.5 0 0 1 2.12 2.12 9.64 9.64 0 0 1-3.69 2.29v2.33a1.5 1.5 0 1 1-3 0v-1.77h-.84v1.79a1.5 1.5 0 0 1-3 0v-2.47a9.8 9.8 0 0 1-3.31-2.17z"></path></g><!----></svg>